<svg width="32" height="32" viewBox="0 0 32 32" fill="none" xmlns="http://www.w3.org/2000/svg">
<rect x="3" y="19.799" width="24" height="4" transform="rotate(-45 3 19.799)" fill="#305CDE"/>
<rect x="8.65683" y="19.799" width="24" height="4" transform="rotate(-45 8.65683 19.799)" fill="#ABC0FF"/>
<path d="M7.668 25.796L7.8 26.1L6.492 26.668L7.8 27.244L7.668 27.54L6.2 26.856V26.48L7.668 25.796ZM9.348 24.772L9.66 24.844L8.736 28.416L8.42 28.34L9.348 24.772ZM12.037 25.988C11.957 26.0147 11.869 26.032 11.773 26.04C11.677 26.048 11.5597 26.052 11.421 26.052C11.669 26.164 11.793 26.3413 11.793 26.584C11.793 26.7947 11.721 26.9667 11.577 27.1C11.433 27.2333 11.237 27.3 10.989 27.3C10.893 27.3 10.8037 27.2867 10.721 27.26C10.689 27.2813 10.6637 27.3107 10.645 27.348C10.6264 27.3827 10.617 27.4187 10.617 27.456C10.617 27.5707 10.709 27.628 10.893 27.628H11.229C11.3704 27.628 11.4957 27.6533 11.605 27.704C11.7144 27.7547 11.7984 27.824 11.857 27.912C11.9184 28 11.949 28.1 11.949 28.212C11.949 28.4173 11.865 28.5747 11.697 28.684C11.529 28.796 11.2837 28.852 10.961 28.852C10.7344 28.852 10.5544 28.828 10.421 28.78C10.2904 28.7347 10.197 28.6653 10.141 28.572C10.085 28.4787 10.057 28.3587 10.057 28.212H10.389C10.389 28.2973 10.405 28.364 10.437 28.412C10.469 28.4627 10.5264 28.5 10.609 28.524C10.6917 28.5507 10.809 28.564 10.961 28.564C11.1824 28.564 11.3397 28.536 11.433 28.48C11.529 28.4267 11.577 28.3453 11.577 28.236C11.577 28.1373 11.5397 28.0627 11.465 28.012C11.3904 27.9613 11.2864 27.936 11.153 27.936H10.821C10.6424 27.936 10.5064 27.8987 10.413 27.824C10.3224 27.7467 10.277 27.6507 10.277 27.536C10.277 27.4667 10.297 27.4 10.337 27.336C10.377 27.272 10.4344 27.2147 10.509 27.164C10.3864 27.1 10.2957 27.0213 10.237 26.928C10.181 26.832 10.153 26.716 10.153 26.58C10.153 26.4387 10.1877 26.312 10.257 26.2C10.329 26.088 10.4264 26.0013 10.549 25.94C10.6744 25.876 10.813 25.844 10.965 25.844C11.1304 25.8467 11.269 25.8413 11.381 25.828C11.493 25.812 11.585 25.792 11.657 25.768C11.7317 25.7413 11.8224 25.704 11.929 25.656L12.037 25.988ZM10.965 26.108C10.8264 26.108 10.7184 26.152 10.641 26.24C10.5664 26.3253 10.529 26.4387 10.529 26.58C10.529 26.724 10.5677 26.84 10.645 26.928C10.7224 27.0133 10.8317 27.056 10.973 27.056C11.117 27.056 11.2264 27.0147 11.301 26.932C11.3784 26.8467 11.417 26.728 11.417 26.576C11.417 26.264 11.2664 26.108 10.965 26.108ZM13.9441 28H13.6281L13.6001 27.672C13.5201 27.8027 13.4281 27.8987 13.3241 27.96C13.2201 28.0187 13.0934 28.048 12.9441 28.048C12.7601 28.048 12.6161 27.992 12.5121 27.88C12.4081 27.768 12.3561 27.6093 12.3561 27.404V25.892H12.7241V27.364C12.7241 27.508 12.7494 27.6107 12.8001 27.672C12.8508 27.7307 12.9334 27.76 13.0481 27.76C13.2534 27.76 13.4294 27.6387 13.5761 27.396V25.892H13.9441V28ZM15.0722 25.892V28H14.7042V25.892H15.0722ZM14.8842 24.88C14.9616 24.88 15.0242 24.904 15.0722 24.952C15.1202 25 15.1442 25.06 15.1442 25.132C15.1442 25.204 15.1202 25.264 15.0722 25.312C15.0242 25.3573 14.9616 25.38 14.8842 25.38C14.8096 25.38 14.7482 25.3573 14.7002 25.312C14.6522 25.264 14.6282 25.204 14.6282 25.132C14.6282 25.06 14.6522 25 14.7002 24.952C14.7482 24.904 14.8096 24.88 14.8842 24.88ZM16.4051 25.844C16.5491 25.844 16.6785 25.864 16.7931 25.904C16.9078 25.944 17.0171 26.004 17.1211 26.084L16.9651 26.316C16.8691 26.2547 16.7771 26.2093 16.6891 26.18C16.6038 26.1507 16.5131 26.136 16.4171 26.136C16.2971 26.136 16.2025 26.1613 16.1331 26.212C16.0638 26.26 16.0291 26.3267 16.0291 26.412C16.0291 26.4973 16.0611 26.564 16.1251 26.612C16.1918 26.66 16.3105 26.7067 16.4811 26.752C16.7158 26.8107 16.8905 26.8907 17.0051 26.992C17.1225 27.0933 17.1811 27.232 17.1811 27.408C17.1811 27.616 17.0998 27.7747 16.9371 27.884C16.7771 27.9933 16.5811 28.048 16.3491 28.048C16.0291 28.048 15.7638 27.956 15.5531 27.772L15.7491 27.548C15.9278 27.684 16.1251 27.752 16.3411 27.752C16.4798 27.752 16.5891 27.724 16.6691 27.668C16.7518 27.6093 16.7931 27.5307 16.7931 27.432C16.7931 27.36 16.7785 27.3027 16.7491 27.26C16.7198 27.2147 16.6691 27.176 16.5971 27.144C16.5251 27.1093 16.4198 27.0733 16.2811 27.036C16.0571 26.9773 15.8945 26.8987 15.7931 26.8C15.6945 26.7013 15.6451 26.576 15.6451 26.424C15.6451 26.3147 15.6771 26.216 15.7411 26.128C15.8078 26.0373 15.8985 25.968 16.0131 25.92C16.1305 25.8693 16.2611 25.844 16.4051 25.844ZM18.1203 28.048C17.9843 28.048 17.8763 28.008 17.7963 27.928C17.719 27.8453 17.6803 27.7307 17.6803 27.584V25.044L18.0483 25V27.576C18.0483 27.6347 18.0576 27.6773 18.0763 27.704C18.0976 27.7307 18.1323 27.744 18.1803 27.744C18.231 27.744 18.2763 27.736 18.3163 27.72L18.4123 27.976C18.3243 28.024 18.227 28.048 18.1203 28.048ZM20.4447 26.884C20.4447 26.9453 20.442 27.008 20.4367 27.072H19.0927C19.1087 27.304 19.1673 27.4747 19.2687 27.584C19.37 27.6933 19.5007 27.748 19.6607 27.748C19.762 27.748 19.8553 27.7333 19.9407 27.704C20.026 27.6747 20.1153 27.628 20.2087 27.564L20.3687 27.784C20.1447 27.96 19.8993 28.048 19.6327 28.048C19.3393 28.048 19.11 27.952 18.9447 27.76C18.782 27.568 18.7007 27.304 18.7007 26.968C18.7007 26.7493 18.7353 26.556 18.8047 26.388C18.8767 26.2173 18.978 26.084 19.1087 25.988C19.242 25.892 19.398 25.844 19.5767 25.844C19.8567 25.844 20.0713 25.936 20.2207 26.12C20.37 26.304 20.4447 26.5587 20.4447 26.884ZM20.0807 26.776C20.0807 26.568 20.0393 26.4093 19.9567 26.3C19.874 26.1907 19.75 26.136 19.5847 26.136C19.2833 26.136 19.1193 26.3573 19.0927 26.8H20.0807V26.776ZM21.9483 25.844C22.023 25.844 22.0923 25.852 22.1563 25.868L22.0883 26.228C22.0243 26.212 21.963 26.204 21.9043 26.204C21.7737 26.204 21.6683 26.252 21.5883 26.348C21.5083 26.444 21.4457 26.5933 21.4003 26.796V28H21.0323V25.892H21.3483L21.3843 26.32C21.4403 26.1627 21.5163 26.044 21.6123 25.964C21.7083 25.884 21.8203 25.844 21.9483 25.844ZM22.9433 25.892V28H22.5753V25.892H22.9433ZM22.7553 24.88C22.8326 24.88 22.8953 24.904 22.9433 24.952C22.9913 25 23.0153 25.06 23.0153 25.132C23.0153 25.204 22.9913 25.264 22.9433 25.312C22.8953 25.3573 22.8326 25.38 22.7553 25.38C22.6806 25.38 22.6193 25.3573 22.5713 25.312C22.5233 25.264 22.4993 25.204 22.4993 25.132C22.4993 25.06 22.5233 25 22.5713 24.952C22.6193 24.904 22.6806 24.88 22.7553 24.88ZM23.6562 25.796L25.1242 26.48V26.856L23.6562 27.54L23.5242 27.244L24.8322 26.668L23.5242 26.1L23.6562 25.796Z" fill="#666666"/>
</svg>
