<svg width="165" height="40" viewBox="0 0 165 40" fill="none" xmlns="http://www.w3.org/2000/svg">
<path d="M15.936 4.848C20.224 4.848 23.92 6.208 27.024 8.928L23.04 13.104C21.856 12.208 20.752 11.568 19.728 11.184C18.736 10.768 17.584 10.56 16.272 10.56C13.808 10.56 11.84 11.536 10.368 13.488C8.896 15.408 8.16 18.336 8.16 22.272C8.16 26.528 8.72 29.552 9.84 31.344C10.96 33.104 12.704 33.984 15.072 33.984C16.736 33.984 18.24 33.616 19.584 32.88V25.344H15.264L14.496 19.776H27.216V36.24C25.488 37.36 23.584 38.224 21.504 38.832C19.424 39.44 17.344 39.744 15.264 39.744C10.208 39.744 6.4 38.272 3.84 35.328C1.28 32.352 0 28 0 22.272C0 18.624 0.688 15.488 2.064 12.864C3.472 10.24 5.376 8.256 7.776 6.912C10.208 5.536 12.928 4.848 15.936 4.848Z" fill="#191919"/>
<path d="M53.8335 38.928H47.2575L46.9215 35.712C45.0655 38.4 42.4895 39.744 39.1935 39.744C36.8575 39.744 35.0815 39.04 33.8655 37.632C32.6815 36.224 32.0895 34.256 32.0895 31.728V13.44H39.6735V30.768C39.6735 32.016 39.8655 32.896 40.2495 33.408C40.6655 33.888 41.2895 34.128 42.1215 34.128C43.7215 34.128 45.0975 33.136 46.2495 31.152V13.44H53.8335V38.928Z" fill="#191919"/>
<path d="M67.3822 13.44V38.928H59.7982V13.44H67.3822ZM63.5423 0C64.8543 0 65.9262 0.416 66.7582 1.248C67.6222 2.048 68.0543 3.072 68.0543 4.32C68.0543 5.568 67.6222 6.608 66.7582 7.44C65.9262 8.24 64.8543 8.64 63.5423 8.64C62.2303 8.64 61.1583 8.24 60.3263 7.44C59.4943 6.608 59.0783 5.568 59.0783 4.32C59.0783 3.072 59.4943 2.048 60.3263 1.248C61.1583 0.416 62.2303 0 63.5423 0Z" fill="#191919"/>
<path d="M82.3211 12.624C84.1451 12.624 85.8571 12.896 87.4571 13.44C89.0571 13.984 90.4651 14.752 91.6811 15.744L88.8971 20.016C86.8171 18.704 84.7211 18.048 82.6091 18.048C81.6171 18.048 80.8491 18.224 80.3051 18.576C79.7931 18.896 79.5371 19.36 79.5371 19.968C79.5371 20.448 79.6491 20.848 79.8731 21.168C80.1291 21.456 80.6251 21.76 81.3611 22.08C82.0971 22.4 83.2331 22.784 84.7691 23.232C87.4251 24 89.3931 25.008 90.6731 26.256C91.9851 27.472 92.6411 29.168 92.6411 31.344C92.6411 33.072 92.1451 34.576 91.1531 35.856C90.1611 37.104 88.8011 38.064 87.0731 38.736C85.3451 39.408 83.4251 39.744 81.3131 39.744C79.1691 39.744 77.1691 39.408 75.3131 38.736C73.4891 38.064 71.9371 37.136 70.6571 35.952L74.3531 31.824C76.4971 33.488 78.7531 34.32 81.1211 34.32C82.2731 34.32 83.1691 34.112 83.8091 33.696C84.4811 33.28 84.8171 32.688 84.8171 31.92C84.8171 31.312 84.6891 30.832 84.4331 30.48C84.1771 30.128 83.6811 29.808 82.9451 29.52C82.2091 29.2 81.0411 28.816 79.4411 28.368C76.9131 27.632 75.0251 26.608 73.7771 25.296C72.5291 23.984 71.9051 22.352 71.9051 20.4C71.9051 18.928 72.3211 17.616 73.1531 16.464C74.0171 15.28 75.2331 14.352 76.8011 13.68C78.4011 12.976 80.2411 12.624 82.3211 12.624Z" fill="#191919"/>
<path d="M103.316 39.744C101.108 39.744 99.3802 39.12 98.1322 37.872C96.9162 36.592 96.3083 34.784 96.3083 32.448V3.312L103.892 2.496V32.16C103.892 33.216 104.324 33.744 105.188 33.744C105.636 33.744 106.052 33.664 106.436 33.504L107.924 38.88C106.548 39.456 105.012 39.744 103.316 39.744Z" fill="#191919"/>
<path d="M132.788 25.68C132.788 26.736 132.74 27.648 132.644 28.416H116.852C117.108 30.56 117.716 32.064 118.676 32.928C119.636 33.792 120.964 34.224 122.66 34.224C123.684 34.224 124.676 34.048 125.636 33.696C126.596 33.312 127.636 32.736 128.756 31.968L131.876 36.192C128.9 38.56 125.588 39.744 121.94 39.744C117.812 39.744 114.644 38.528 112.436 36.096C110.228 33.664 109.124 30.4 109.124 26.304C109.124 23.712 109.588 21.392 110.516 19.344C111.444 17.264 112.804 15.632 114.596 14.448C116.388 13.232 118.532 12.624 121.028 12.624C124.708 12.624 127.588 13.776 129.668 16.08C131.748 18.384 132.788 21.584 132.788 25.68ZM125.348 23.52C125.284 19.616 123.908 17.664 121.22 17.664C119.908 17.664 118.884 18.144 118.148 19.104C117.444 20.064 117.012 21.648 116.852 23.856H125.348V23.52Z" fill="#191919"/>
<path d="M150.872 12.72C151.8 12.72 152.648 12.832 153.416 13.056L152.216 20.4C151.256 20.176 150.488 20.064 149.912 20.064C148.408 20.064 147.256 20.592 146.456 21.648C145.688 22.672 145.08 24.224 144.632 26.304V38.928H137.048V13.44H143.672L144.296 18.384C144.872 16.624 145.736 15.248 146.888 14.256C148.072 13.232 149.4 12.72 150.872 12.72Z" fill="#191919"/>
<path d="M163.898 13.44V38.928H156.314V13.44H163.898ZM160.058 0C161.37 0 162.442 0.416 163.274 1.248C164.138 2.048 164.57 3.072 164.57 4.32C164.57 5.568 164.138 6.608 163.274 7.44C162.442 8.24 161.37 8.64 160.058 8.64C158.746 8.64 157.674 8.24 156.842 7.44C156.01 6.608 155.594 5.568 155.594 4.32C155.594 3.072 156.01 2.048 156.842 1.248C157.674 0.416 158.746 0 160.058 0Z" fill="#191919"/>
</svg>
